# xmcd
#
# Track frame offsets:
# 150
# 13996
# 30434
# 47008
# 58814
# 73855
# 85448
# 99829
# 113990
# 130872
# 143047
# 155453
# 172488
# 185092
#
# Disc length: 2701 seconds
#
# Revision: 0
# Processed by: cddbd v1.5.1PL0 Copyright (c) Steve Scherf et al.
# Submitted via: Axialis_AX_CDPlayer 2.6
#
DISCID=cb0a8b0e
DTITLE=Various Artist - Mel-o-dramatic Cowboy
DYEAR=1900
DGENRE=
TTITLE0=Dreamin' Out Loud - Sharon Westlake
TTITLE1=Road I Walk - Mark LaForme
TTITLE2=Somewhere Off On Shore - Joey Sloan
TTITLE3=The Trucker Song - Lindsey Morgan
TTITLE4=Hall Of Shame - Robert Maciag
TTITLE5=Memories Of The Maritimes - Shelley Buffitt
TTITLE6=Like Our Lovin' - Lenny Paquette
TTITLE7=Strawberry Roan - Wayne Austin
TTITLE8=Swiss Yodeller's Lullabye - Yodellin' Bob Evans
TTITLE9=Picking Up The Pieces - Grant Tingey
TTITLE10=Heartache For You - The Bains
TTITLE11=Slow Dance - Laurie McClune
TTITLE12=Countrystar - Dennis Pedersen
TTITLE13=Same Old Story - Jim Fullen
EXTD=
EXTT0=
EXTT1=
EXTT2=
EXTT3=
EXTT4=
EXTT5=
EXTT6=
EXTT7=
EXTT8=
EXTT9=
EXTT10=
EXTT11=
EXTT12=
EXTT13=
PLAYORDER=
